<mxfile host="Electron" modified="2024-07-09T11:16:27.881Z" agent="Mozilla/5.0 (Windows NT 10.0; Win64; x64) AppleWebKit/537.36 (KHTML, like Gecko) draw.io/24.6.4 Chrome/124.0.6367.207 Electron/30.0.6 Safari/537.36" etag="2GBXAyekhb8eywRjdk8j" version="24.6.4" type="device">
  <diagram name="Страница — 1" id="fXR2dtHrbs7C-k9jbENd">
    <mxGraphModel dx="1105" dy="662" grid="1" gridSize="10" guides="1" tooltips="1" connect="1" arrows="1" fold="1" page="1" pageScale="1" pageWidth="2339" pageHeight="3300" math="0" shadow="0">
      <root>
        <mxCell id="0" />
        <mxCell id="1" parent="0" />
        <mxCell id="pN4NnXf6XDwcHvwxp7Px-1" value="Author" style="shape=umlLifeline;perimeter=lifelinePerimeter;whiteSpace=wrap;html=1;container=0;dropTarget=0;collapsible=0;recursiveResize=0;outlineConnect=0;portConstraint=eastwest;newEdgeStyle={&quot;edgeStyle&quot;:&quot;elbowEdgeStyle&quot;,&quot;elbow&quot;:&quot;vertical&quot;,&quot;curved&quot;:0,&quot;rounded&quot;:0};" parent="1" vertex="1">
          <mxGeometry x="380" y="160" width="100" height="400" as="geometry" />
        </mxCell>
        <mxCell id="pN4NnXf6XDwcHvwxp7Px-2" value="" style="html=1;points=[];perimeter=orthogonalPerimeter;outlineConnect=0;targetShapes=umlLifeline;portConstraint=eastwest;newEdgeStyle={&quot;edgeStyle&quot;:&quot;elbowEdgeStyle&quot;,&quot;elbow&quot;:&quot;vertical&quot;,&quot;curved&quot;:0,&quot;rounded&quot;:0};" parent="pN4NnXf6XDwcHvwxp7Px-1" vertex="1">
          <mxGeometry x="45" y="80" width="10" height="290" as="geometry" />
        </mxCell>
        <mxCell id="pN4NnXf6XDwcHvwxp7Px-3" value="Backend" style="shape=umlLifeline;perimeter=lifelinePerimeter;whiteSpace=wrap;html=1;container=0;dropTarget=0;collapsible=0;recursiveResize=0;outlineConnect=0;portConstraint=eastwest;newEdgeStyle={&quot;edgeStyle&quot;:&quot;elbowEdgeStyle&quot;,&quot;elbow&quot;:&quot;vertical&quot;,&quot;curved&quot;:0,&quot;rounded&quot;:0};" parent="1" vertex="1">
          <mxGeometry x="690" y="160" width="100" height="400" as="geometry" />
        </mxCell>
        <mxCell id="pN4NnXf6XDwcHvwxp7Px-4" value="" style="html=1;points=[];perimeter=orthogonalPerimeter;outlineConnect=0;targetShapes=umlLifeline;portConstraint=eastwest;newEdgeStyle={&quot;edgeStyle&quot;:&quot;elbowEdgeStyle&quot;,&quot;elbow&quot;:&quot;vertical&quot;,&quot;curved&quot;:0,&quot;rounded&quot;:0};" parent="pN4NnXf6XDwcHvwxp7Px-3" vertex="1">
          <mxGeometry x="45" y="80" width="10" height="290" as="geometry" />
        </mxCell>
        <mxCell id="pN4NnXf6XDwcHvwxp7Px-5" value="Data Base" style="shape=umlLifeline;perimeter=lifelinePerimeter;whiteSpace=wrap;html=1;container=0;dropTarget=0;collapsible=0;recursiveResize=0;outlineConnect=0;portConstraint=eastwest;newEdgeStyle={&quot;edgeStyle&quot;:&quot;elbowEdgeStyle&quot;,&quot;elbow&quot;:&quot;vertical&quot;,&quot;curved&quot;:0,&quot;rounded&quot;:0};" parent="1" vertex="1">
          <mxGeometry x="1030" y="160" width="100" height="410" as="geometry" />
        </mxCell>
        <mxCell id="pN4NnXf6XDwcHvwxp7Px-6" value="" style="html=1;points=[];perimeter=orthogonalPerimeter;outlineConnect=0;targetShapes=umlLifeline;portConstraint=eastwest;newEdgeStyle={&quot;edgeStyle&quot;:&quot;elbowEdgeStyle&quot;,&quot;elbow&quot;:&quot;vertical&quot;,&quot;curved&quot;:0,&quot;rounded&quot;:0};" parent="pN4NnXf6XDwcHvwxp7Px-5" vertex="1">
          <mxGeometry x="45" y="80" width="10" height="290" as="geometry" />
        </mxCell>
        <mxCell id="pN4NnXf6XDwcHvwxp7Px-7" value="запрос на создание места" style="html=1;verticalAlign=bottom;endArrow=block;edgeStyle=elbowEdgeStyle;elbow=vertical;curved=0;rounded=0;" parent="1" edge="1">
          <mxGeometry relative="1" as="geometry">
            <mxPoint x="440" y="260" as="sourcePoint" />
            <Array as="points">
              <mxPoint x="530" y="260" />
            </Array>
            <mxPoint x="729.5" y="260" as="targetPoint" />
            <mxPoint as="offset" />
          </mxGeometry>
        </mxCell>
        <mxCell id="pN4NnXf6XDwcHvwxp7Px-8" value="" style="edgeStyle=elbowEdgeStyle;rounded=0;orthogonalLoop=1;jettySize=auto;html=1;elbow=vertical;curved=0;dashed=1;" parent="1" edge="1">
          <mxGeometry relative="1" as="geometry">
            <mxPoint x="1075" y="330" as="sourcePoint" />
            <mxPoint x="750" y="330" as="targetPoint" />
          </mxGeometry>
        </mxCell>
        <mxCell id="pN4NnXf6XDwcHvwxp7Px-9" value="получение прав доступа пользователя" style="edgeLabel;html=1;align=center;verticalAlign=middle;resizable=0;points=[];" parent="pN4NnXf6XDwcHvwxp7Px-8" vertex="1" connectable="0">
          <mxGeometry x="0.1744" y="1" relative="1" as="geometry">
            <mxPoint x="36" y="-11" as="offset" />
          </mxGeometry>
        </mxCell>
        <mxCell id="pN4NnXf6XDwcHvwxp7Px-12" value="" style="edgeStyle=elbowEdgeStyle;rounded=0;orthogonalLoop=1;jettySize=auto;html=1;elbow=vertical;curved=0;dashed=1;" parent="1" edge="1">
          <mxGeometry relative="1" as="geometry">
            <mxPoint x="1070" y="480" as="sourcePoint" />
            <mxPoint x="750" y="480" as="targetPoint" />
          </mxGeometry>
        </mxCell>
        <mxCell id="pN4NnXf6XDwcHvwxp7Px-13" value="сохранено, ожидайте обработки" style="edgeLabel;html=1;align=center;verticalAlign=middle;resizable=0;points=[];" parent="pN4NnXf6XDwcHvwxp7Px-12" vertex="1" connectable="0">
          <mxGeometry x="0.1744" y="1" relative="1" as="geometry">
            <mxPoint y="-11" as="offset" />
          </mxGeometry>
        </mxCell>
        <mxCell id="pN4NnXf6XDwcHvwxp7Px-16" value="" style="edgeStyle=elbowEdgeStyle;rounded=0;orthogonalLoop=1;jettySize=auto;html=1;elbow=vertical;curved=0;dashed=1;" parent="1" edge="1">
          <mxGeometry relative="1" as="geometry">
            <mxPoint x="735.5" y="390" as="sourcePoint" />
            <mxPoint x="440" y="390" as="targetPoint" />
          </mxGeometry>
        </mxCell>
        <mxCell id="pN4NnXf6XDwcHvwxp7Px-17" value="получение формы для создания места" style="edgeLabel;html=1;align=center;verticalAlign=middle;resizable=0;points=[];" parent="pN4NnXf6XDwcHvwxp7Px-16" vertex="1" connectable="0">
          <mxGeometry x="-0.2799" y="-3" relative="1" as="geometry">
            <mxPoint x="-45" as="offset" />
          </mxGeometry>
        </mxCell>
        <mxCell id="pN4NnXf6XDwcHvwxp7Px-18" value="" style="rounded=0;orthogonalLoop=1;jettySize=auto;html=1;elbow=vertical;" parent="1" target="pN4NnXf6XDwcHvwxp7Px-5" edge="1">
          <mxGeometry relative="1" as="geometry">
            <mxPoint x="740" y="270" as="sourcePoint" />
            <mxPoint x="1023.5" y="270" as="targetPoint" />
          </mxGeometry>
        </mxCell>
        <mxCell id="pN4NnXf6XDwcHvwxp7Px-19" value="запрос на создание места" style="edgeLabel;html=1;align=center;verticalAlign=middle;resizable=0;points=[];" parent="pN4NnXf6XDwcHvwxp7Px-18" vertex="1" connectable="0">
          <mxGeometry x="-0.251" y="-2" relative="1" as="geometry">
            <mxPoint x="43" y="-12" as="offset" />
          </mxGeometry>
        </mxCell>
        <mxCell id="pN4NnXf6XDwcHvwxp7Px-22" value="" style="edgeStyle=orthogonalEdgeStyle;rounded=0;orthogonalLoop=1;jettySize=auto;html=1;elbow=vertical;" parent="1" edge="1">
          <mxGeometry relative="1" as="geometry">
            <mxPoint x="1070" y="290" as="sourcePoint" />
            <mxPoint x="1075" y="310" as="targetPoint" />
            <Array as="points">
              <mxPoint x="1070" y="291" />
              <mxPoint x="986" y="291" />
              <mxPoint x="986" y="310" />
            </Array>
          </mxGeometry>
        </mxCell>
        <mxCell id="pN4NnXf6XDwcHvwxp7Px-23" value="поиск пользователя" style="edgeLabel;html=1;align=center;verticalAlign=middle;resizable=0;points=[];" parent="pN4NnXf6XDwcHvwxp7Px-22" vertex="1" connectable="0">
          <mxGeometry x="-0.5878" y="-4" relative="1" as="geometry">
            <mxPoint x="-11" y="-7" as="offset" />
          </mxGeometry>
        </mxCell>
        <mxCell id="pN4NnXf6XDwcHvwxp7Px-33" value="" style="edgeStyle=orthogonalEdgeStyle;rounded=0;orthogonalLoop=1;jettySize=auto;html=1;elbow=vertical;" parent="1" edge="1">
          <mxGeometry relative="1" as="geometry">
            <mxPoint x="750" y="350" as="sourcePoint" />
            <mxPoint x="750" y="379" as="targetPoint" />
            <Array as="points">
              <mxPoint x="830" y="350" />
              <mxPoint x="830" y="379" />
            </Array>
          </mxGeometry>
        </mxCell>
        <mxCell id="pN4NnXf6XDwcHvwxp7Px-34" value="проверка прав доступа" style="edgeLabel;html=1;align=center;verticalAlign=middle;resizable=0;points=[];" parent="pN4NnXf6XDwcHvwxp7Px-33" vertex="1" connectable="0">
          <mxGeometry x="-0.251" y="-2" relative="1" as="geometry">
            <mxPoint x="-11" y="-12" as="offset" />
          </mxGeometry>
        </mxCell>
        <mxCell id="pN4NnXf6XDwcHvwxp7Px-35" value="" style="edgeStyle=elbowEdgeStyle;rounded=0;orthogonalLoop=1;jettySize=auto;html=1;elbow=vertical;curved=0;" parent="1" target="pN4NnXf6XDwcHvwxp7Px-4" edge="1">
          <mxGeometry relative="1" as="geometry">
            <mxPoint x="440" y="430" as="sourcePoint" />
            <mxPoint x="730" y="420" as="targetPoint" />
          </mxGeometry>
        </mxCell>
        <mxCell id="pN4NnXf6XDwcHvwxp7Px-36" value="отправка формы для создания места" style="edgeLabel;html=1;align=center;verticalAlign=middle;resizable=0;points=[];" parent="pN4NnXf6XDwcHvwxp7Px-35" vertex="1" connectable="0">
          <mxGeometry x="-0.2898" y="4" relative="1" as="geometry">
            <mxPoint x="29" y="-5" as="offset" />
          </mxGeometry>
        </mxCell>
        <mxCell id="pN4NnXf6XDwcHvwxp7Px-37" value="" style="edgeStyle=elbowEdgeStyle;rounded=0;orthogonalLoop=1;jettySize=auto;html=1;elbow=vertical;curved=0;" parent="1" edge="1">
          <mxGeometry relative="1" as="geometry">
            <mxPoint x="750" y="450" as="sourcePoint" />
            <mxPoint x="1070" y="450" as="targetPoint" />
          </mxGeometry>
        </mxCell>
        <mxCell id="pN4NnXf6XDwcHvwxp7Px-38" value="сохранение место со статус обработки" style="edgeLabel;html=1;align=center;verticalAlign=middle;resizable=0;points=[];" parent="pN4NnXf6XDwcHvwxp7Px-37" vertex="1" connectable="0">
          <mxGeometry x="0.1616" y="2" relative="1" as="geometry">
            <mxPoint x="-19" y="-8" as="offset" />
          </mxGeometry>
        </mxCell>
        <mxCell id="pN4NnXf6XDwcHvwxp7Px-39" value="" style="edgeStyle=elbowEdgeStyle;rounded=0;orthogonalLoop=1;jettySize=auto;html=1;elbow=vertical;curved=0;dashed=1;" parent="1" edge="1">
          <mxGeometry relative="1" as="geometry">
            <mxPoint x="730" y="495" as="sourcePoint" />
            <mxPoint x="439.9973684210527" y="494.8421052631579" as="targetPoint" />
          </mxGeometry>
        </mxCell>
        <mxCell id="pN4NnXf6XDwcHvwxp7Px-40" value="сохранено, ожидайте обработки" style="edgeLabel;html=1;align=center;verticalAlign=middle;resizable=0;points=[];" parent="pN4NnXf6XDwcHvwxp7Px-39" vertex="1" connectable="0">
          <mxGeometry x="0.1744" y="1" relative="1" as="geometry">
            <mxPoint x="15" y="-16" as="offset" />
          </mxGeometry>
        </mxCell>
      </root>
    </mxGraphModel>
  </diagram>
</mxfile>
